<svg xmlns="http://www.w3.org/2000/svg" viewBox="0 0 1600 1000"><defs><linearGradient id="bg" x1="0" y1="0" x2="1" y2="1"><stop stop-color="#040506"/><stop offset=".46" stop-color="#101316"/><stop offset="1" stop-color="#690a12"/></linearGradient><radialGradient id="g"><stop stop-color="#ed2733" stop-opacity=".5"/><stop offset="1" stop-color="#ed2733" stop-opacity="0"/></radialGradient></defs><rect width="1600" height="1000" fill="url(#bg)"/><circle cx="1280" cy="170" r="430" fill="url(#g)"/><g fill="none" stroke="#fff" opacity=".14"><circle cx="1160" cy="670" r="300" stroke-width="4"/><circle cx="1160" cy="670" r="205" stroke-width="3"/><path d="M860 670h600M1160 370v600" stroke-width="3"/><path d="M0 835L1600 585M0 915L1600 665M0 995L1600 745" stroke-width="2"/></g><g fill="#fff" opacity=".15"><path d="M900 655l34-92 34 92-34 92z"/><path d="M1020 620l42-115 42 115-42 115z"/><path d="M1150 610l44-120 44 120-44 120z"/><path d="M1280 635l38-105 38 105-38 105z"/></g><rect x="74" y="118" width="54" height="5" rx="2" fill="#ed2733"/><text x="74" y="105" fill="#ff6670" font-family="Arial,Helvetica,sans-serif" font-size="25" font-weight="700" letter-spacing="7">SELEÇÃO DE BAIXA GRANDE</text><text x="74" y="270" fill="#fff" font-family="Arial,Helvetica,sans-serif" font-size="155" font-weight="900" letter-spacing="-6">SUB-17</text><text x="80" y="325" fill="#d9d9dc" font-family="Arial,Helvetica,sans-serif" font-size="30">INTENSIDADE • FORMAÇÃO • FUTURO</text><rect x="80" y="390" width="330" height="4" fill="#ed2733"/></svg>